HIERARCHY
ROOT Hips
{
	OFFSET 0.000000 121.760803 0.000000
	CHANNELS 6 Xposition Yposition Zposition Xrotation Yrotation Zrotation 
	JOINT Spine
	{
		OFFSET 0.072000 7.257294 -0.789700
		CHANNELS 3 Xrotation Yrotation Zrotation
		JOINT Spine1
		{
			OFFSET 0.000000 12.508769 -0.658067
			CHANNELS 3 Xrotation Yrotation Zrotation
			JOINT Spine1_split
			{
				OFFSET 0.000000 12.508769 -0.658067
				CHANNELS 3 Xrotation Yrotation Zrotation
				JOINT Spine2
				{
					OFFSET 0.000000 12.508769 -0.658067
					CHANNELS 3 Xrotation Yrotation Zrotation
					JOINT Neck
					{
						OFFSET 0.000000 14.033295 7.520400
						CHANNELS 3 Xrotation Yrotation Zrotation
						JOINT Head
						{
							OFFSET 0.000000 8.198502 5.703100
							CHANNELS 3 Xrotation Yrotation Zrotation
							JOINT HeadTop_End
							{
								OFFSET 0.000000 17.760803 13.332701
								CHANNELS 3 Xrotation Yrotation Zrotation
								End Site
								{
									OFFSET 0.000000 0.000000 0.000000
								}
							}
						}
					}
					JOINT LeftShoulder
					{
						OFFSET 6.292450 5.785301 -0.669000
						CHANNELS 3 Xrotation Yrotation Zrotation
						JOINT LeftShoulder_split
						{
							OFFSET 6.292450 5.785301 -0.669000
							CHANNELS 3 Xrotation Yrotation Zrotation
							JOINT LeftArm
							{
								OFFSET 13.907140 -6.093903 1.965100
								CHANNELS 3 Xrotation Yrotation Zrotation
								JOINT LeftForeArm
								{
									OFFSET 34.140198 0.000000 0.000000
									CHANNELS 3 Xrotation Yrotation Zrotation
									JOINT LeftHand
									{
										OFFSET 40.960209 0.000000 0.000000
										CHANNELS 3 Xrotation Yrotation Zrotation
										JOINT LeftHandThumb1
										{
											OFFSET 10.006996 -7.170425 9.573125
											CHANNELS 3 Xrotation Yrotation Zrotation
											JOINT LeftHandThumb2
											{
												OFFSET 1.835007 -1.059448 1.059443
												CHANNELS 3 Xrotation Yrotation Zrotation
												JOINT LeftHandThumb3
												{
													OFFSET 2.112267 -1.219513 1.219518
													CHANNELS 3 Xrotation Yrotation Zrotation
													JOINT LeftHandThumb4
													{
														OFFSET 4.843811 -2.796570 2.796576
														CHANNELS 3 Xrotation Yrotation Zrotation
														End Site
														{
															OFFSET 0.000000 0.000000 0.000000
														}
													}
												}
											}
										}
										JOINT LeftHandIndex1
										{
											OFFSET 18.389847 -0.922348 4.596882
											CHANNELS 3 Xrotation Yrotation Zrotation
											JOINT LeftHandIndex2
											{
												OFFSET 4.711273 0.000000 0.000000
												CHANNELS 3 Xrotation Yrotation Zrotation
												JOINT LeftHandIndex3
												{
													OFFSET 2.886131 0.000000 0.000000
													CHANNELS 3 Xrotation Yrotation Zrotation
													JOINT LeftHandIndex4
													{
														OFFSET 6.145912 0.000000 0.000000
														CHANNELS 3 Xrotation Yrotation Zrotation
														End Site
														{
															OFFSET 0.000000 0.000000 0.000000
														}
													}
												}
											}
										}
										JOINT LeftHandMiddle1
										{
											OFFSET 18.013008 0.000000 0.000000
											CHANNELS 3 Xrotation Yrotation Zrotation
											JOINT LeftHandMiddle2
											{
												OFFSET 4.946693 0.000000 0.000000
												CHANNELS 3 Xrotation Yrotation Zrotation
												JOINT LeftHandMiddle3
												{
													OFFSET 3.342232 0.000000 0.000000
													CHANNELS 3 Xrotation Yrotation Zrotation
													JOINT LeftHandMiddle4
													{
														OFFSET 4.461754 0.000000 0.000000
														CHANNELS 3 Xrotation Yrotation Zrotation
														End Site
														{
															OFFSET 0.000000 0.000000 0.000000
														}
													}
												}
											}
										}
										JOINT LeftHandRing1
										{
											OFFSET 15.849892 -0.102921 -4.126150
											CHANNELS 3 Xrotation Yrotation Zrotation
											JOINT LeftHandRing2
											{
												OFFSET 3.527054 0.000000 0.000000
												CHANNELS 3 Xrotation Yrotation Zrotation
												JOINT LeftHandRing3
												{
													OFFSET 2.961098 0.000000 0.000000
													CHANNELS 3 Xrotation Yrotation Zrotation
													JOINT LeftHandRing4
													{
														OFFSET 4.927200 0.000000 0.000000
														CHANNELS 3 Xrotation Yrotation Zrotation
														End Site
														{
															OFFSET 0.000000 0.000000 0.000000
														}
													}
												}
											}
										}
										JOINT LeftHandPinky1
										{
											OFFSET 12.791824 -0.832031 -6.799156
											CHANNELS 3 Xrotation Yrotation Zrotation
											JOINT LeftHandPinky2
											{
												OFFSET 3.327133 0.000000 0.000000
												CHANNELS 3 Xrotation Yrotation Zrotation
												JOINT LeftHandPinky3
												{
													OFFSET 3.014900 0.000000 0.000000
													CHANNELS 3 Xrotation Yrotation Zrotation
													JOINT LeftHandPinky4
													{
														OFFSET 5.847786 0.000000 0.000000
														CHANNELS 3 Xrotation Yrotation Zrotation
														End Site
														{
															OFFSET 0.000000 0.000000 0.000000
														}
													}
												}
											}
										}
									}
								}
							}
						}
					}
					JOINT RightShoulder
					{
						OFFSET -6.292450 5.785301 -0.669000
						CHANNELS 3 Xrotation Yrotation Zrotation
						JOINT RightShoulder_split
						{
							OFFSET -6.292450 5.785301 -0.669000
							CHANNELS 3 Xrotation Yrotation Zrotation
							JOINT RightArm
							{
								OFFSET -13.907140 -6.093903 1.965100
								CHANNELS 3 Xrotation Yrotation Zrotation
								JOINT RightForeArm
								{
									OFFSET -34.140198 0.000000 0.000000
									CHANNELS 3 Xrotation Yrotation Zrotation
									JOINT RightHand
									{
										OFFSET -40.960209 0.000000 0.000000
										CHANNELS 3 Xrotation Yrotation Zrotation
										JOINT RightHandThumb1
										{
											OFFSET -10.007050 -7.170456 9.573117
											CHANNELS 3 Xrotation Yrotation Zrotation
											JOINT RightHandThumb2
											{
												OFFSET -1.835007 -1.059448 1.059443
												CHANNELS 3 Xrotation Yrotation Zrotation
												JOINT RightHandThumb3
												{
													OFFSET -2.112267 -1.219513 1.219518
													CHANNELS 3 Xrotation Yrotation Zrotation
													JOINT RightHandThumb4
													{
														OFFSET -4.843834 -2.796585 2.796590
														CHANNELS 3 Xrotation Yrotation Zrotation
														End Site
														{
															OFFSET 0.000000 0.000000 0.000000
														}
													}
												}
											}
										}
										JOINT RightHandIndex1
										{
											OFFSET -18.389870 -0.922424 4.596786
											CHANNELS 3 Xrotation Yrotation Zrotation
											JOINT RightHandIndex2
											{
												OFFSET -4.711273 0.000000 0.000000
												CHANNELS 3 Xrotation Yrotation Zrotation
												JOINT RightHandIndex3
												{
													OFFSET -2.886131 0.000000 0.000000
													CHANNELS 3 Xrotation Yrotation Zrotation
													JOINT RightHandIndex4
													{
														OFFSET -6.145920 0.000000 0.000000
														CHANNELS 3 Xrotation Yrotation Zrotation
														End Site
														{
															OFFSET 0.000000 0.000000 0.000000
														}
													}
												}
											}
										}
										JOINT RightHandMiddle1
										{
											OFFSET -18.013008 0.000000 0.000000
											CHANNELS 3 Xrotation Yrotation Zrotation
											JOINT RightHandMiddle2
											{
												OFFSET -4.946693 0.000000 0.000000
												CHANNELS 3 Xrotation Yrotation Zrotation
												JOINT RightHandMiddle3
												{
													OFFSET -3.342232 0.000000 0.000000
													CHANNELS 3 Xrotation Yrotation Zrotation
													JOINT RightHandMiddle4
													{
														OFFSET -4.461754 0.000000 0.000000
														CHANNELS 3 Xrotation Yrotation Zrotation
														End Site
														{
															OFFSET 0.000000 0.000000 0.000000
														}
													}
												}
											}
										}
										JOINT RightHandRing1
										{
											OFFSET -15.849876 -0.102936 -4.126237
											CHANNELS 3 Xrotation Yrotation Zrotation
											JOINT RightHandRing2
											{
												OFFSET -3.527054 0.000000 0.000000
												CHANNELS 3 Xrotation Yrotation Zrotation
												JOINT RightHandRing3
												{
													OFFSET -2.961098 0.000000 0.000000
													CHANNELS 3 Xrotation Yrotation Zrotation
													JOINT RightHandRing4
													{
														OFFSET -4.927200 0.000000 0.000000
														CHANNELS 3 Xrotation Yrotation Zrotation
														End Site
														{
															OFFSET 0.000000 0.000000 0.000000
														}
													}
												}
											}
										}
										JOINT RightHandPinky1
										{
											OFFSET -12.791786 -0.832077 -6.799222
											CHANNELS 3 Xrotation Yrotation Zrotation
											JOINT RightHandPinky2
											{
												OFFSET -3.327133 0.000000 0.000000
												CHANNELS 3 Xrotation Yrotation Zrotation
												JOINT RightHandPinky3
												{
													OFFSET -3.014900 0.000000 0.000000
													CHANNELS 3 Xrotation Yrotation Zrotation
													JOINT RightHandPinky4
													{
														OFFSET -5.847786 0.000000 0.000000
														CHANNELS 3 Xrotation Yrotation Zrotation
														End Site
														{
															OFFSET 0.000000 0.000000 0.000000
														}
													}
												}
											}
										}
									}
								}
							}
						}
					}
				}
			}
		}
	}
	JOINT LeftUpLeg
	{
		OFFSET 13.026900 -6.336304 -1.092800
		CHANNELS 3 Xrotation Yrotation Zrotation
		JOINT LeftLeg
		{
			OFFSET 0.524474 -46.096886 9.782700
			CHANNELS 3 Xrotation Yrotation Zrotation
			JOINT LeftFoot
			{
				OFFSET -0.524474 -53.427422 -12.948200
				CHANNELS 3 Xrotation Yrotation Zrotation
				JOINT LeftToeBase
				{
					OFFSET 0.192200 -14.009700 16.364100
					CHANNELS 3 Xrotation Yrotation Zrotation
					JOINT LeftToe_End
					{
						OFFSET -1.784700 -0.561700 9.474800
						CHANNELS 3 Xrotation Yrotation Zrotation
						End Site
						{
							OFFSET 0.000000 0.000000 0.000000
						}
					}
				}
			}
		}
	}
	JOINT RightUpLeg
	{
		OFFSET -12.883000 -6.336304 -1.092800
		CHANNELS 3 Xrotation Yrotation Zrotation
		JOINT RightLeg
		{
			OFFSET -0.524587 -46.096825 9.782800
			CHANNELS 3 Xrotation Yrotation Zrotation
			JOINT RightFoot
			{
				OFFSET 0.524587 -53.427383 -12.948300
				CHANNELS 3 Xrotation Yrotation Zrotation
				JOINT RightToeBase
				{
					OFFSET -0.192200 -14.009700 16.364100
					CHANNELS 3 Xrotation Yrotation Zrotation
					JOINT RightToe_End
					{
						OFFSET 1.784700 -0.561700 9.474800
						CHANNELS 3 Xrotation Yrotation Zrotation
						End Site
						{
							OFFSET 0.000000 0.000000 0.000000
						}
					}
				}
			}
		}
	}
}
MOTION
Frames: 4
Frame Time: 0.016667
-0.287461 88.398193 2.239720 7.491386 2.862865 0.010210 1.426710 -2.635557 -1.543101 4.463938 -2.897045 3.069453 0.000000 0.000000 0.000000 4.470559 -2.960905 2.997964 -6.646407 2.329848 -0.789045 -22.799697 6.183979 9.466395 -0.000001 -0.000000 0.000001 -0.863857 7.389831 -0.025978 0.000000 0.000000 0.000000 -11.563468 10.383924 -66.345514 0.000027 -115.180116 0.000015 -72.996185 -11.310955 -18.454649 2.694220 20.233102 14.029386 2.246560 5.062592 -0.344654 -7.335902 -0.421715 13.147327 0.000002 0.000000 -0.000000 5.768248 6.881141 -88.058760 5.425133 5.835586 -85.818110 5.524567 5.841981 -86.795592 0.000001 0.000002 0.000000 -0.017679 7.177029 -79.088304 3.595327 5.400158 -67.288210 4.336601 5.652332 -74.974222 0.000003 -0.000003 -0.000001 0.351609 7.858092 -86.242388 3.058252 5.143539 -61.447852 7.457113 5.627059 -105.957913 0.000001 0.000000 -0.000000 -3.192662 8.750425 -83.420905 6.384924 5.826755 -95.244099 6.457090 5.819716 -95.955258 0.000000 0.000001 -0.000000 0.518555 -7.917607 14.973076 0.000000 0.000000 0.000000 -19.108962 0.823920 54.259999 0.000060 114.793883 -0.000060 -65.260928 9.926077 32.064729 2.274831 -18.433733 -12.204902 2.753429 -6.766211 -0.612014 -5.504820 -5.510960 -14.718499 0.000001 -0.000000 -0.000001 5.674712 -1.758879 87.252764 4.318628 -4.644871 85.826661 4.397481 -4.649943 86.799991 -0.000001 -0.000003 0.000000 2.028902 -6.487541 78.554743 2.866348 -4.299783 67.363239 3.450432 -4.498466 74.966715 0.000003 0.000003 0.000000 -1.327485 -6.487817 85.540203 2.437356 -4.095138 61.507185 5.933600 -4.479221 105.923680 0.000002 -0.000000 -0.000001 -13.485157 -6.858196 82.489595 5.081625 -4.637841 95.235076 5.138737 -4.632277 95.941823 0.000001 -0.000002 0.000003 22.707642 18.051975 3.988453 25.458430 -7.394604 7.501881 -45.014293 -2.088968 -0.625098 -14.032937 -0.000002 0.000000 -0.000000 -0.000000 -0.000001 -64.761969 -0.120650 -3.212492 71.217850 -2.114017 0.061748 -14.332988 3.001804 -4.555746 1.710517 -0.002383 0.399949 0.000000 0.000000 0.000000 
-0.139482 91.316391 2.653982 7.400790 4.614136 0.742706 1.561909 -2.744293 -1.480042 3.785094 -3.090958 2.685692 0.000000 0.000000 0.000000 3.791152 -3.134330 2.617751 -6.142035 2.189228 -1.060333 -20.578866 4.977733 9.024682 -0.000001 -0.000000 0.000000 -0.699217 6.301895 -0.123048 0.000000 0.000000 0.000000 -14.747396 8.597207 -65.355095 0.000029 -113.772346 0.000004 -71.122828 -11.217033 -18.021019 2.956455 20.391916 13.868041 2.256794 5.074910 -0.335833 -7.322874 -0.404668 13.162753 0.000002 -0.000000 -0.000000 5.832242 6.953398 -87.643676 5.383906 5.832423 -85.412663 5.485063 5.839647 -86.407589 -0.000001 0.000001 -0.000001 0.075944 7.167625 -78.770557 3.574150 5.391282 -67.063046 4.317596 5.647211 -74.780900 0.000002 0.000000 0.000000 0.430402 7.837975 -85.961742 3.052602 5.140486 -61.384686 7.436247 5.632934 -105.745187 0.000003 0.000000 -0.000001 -3.123917 8.721501 -83.173488 6.386837 5.826565 -95.262964 6.458427 5.819578 -95.968570 0.000000 -0.000001 0.000003 0.413487 -7.788716 13.845019 0.000000 0.000000 0.000000 -20.755794 2.647582 54.652500 0.000027 114.710322 -0.000029 -65.124918 9.634457 30.561637 2.414876 -18.861677 -12.282933 2.756550 -6.763774 -0.616802 -5.465451 -5.594274 -14.760052 0.000001 -0.000000 0.000001 5.724081 -2.009595 86.044667 4.254349 -4.639735 85.032652 4.335734 -4.646100 86.038138 -0.000003 0.000002 0.000003 2.223331 -6.492725 77.328185 2.805695 -4.274075 66.551847 3.389840 -4.481804 74.192677 0.000001 -0.000000 -0.000000 -1.004141 -6.353184 83.832711 2.365597 -4.055459 60.497397 5.838699 -4.505117 104.712052 -0.000000 0.000002 -0.000003 -13.015758 -6.850536 80.337696 4.970066 -4.646662 93.856635 5.024603 -4.642699 94.530276 -0.000002 0.000001 -0.000000 20.978858 16.213411 3.249463 25.836864 -6.471504 8.615353 -37.486359 -1.865270 -0.433536 -21.776830 0.000002 -0.000001 -0.000000 -0.000000 -0.000000 -61.386045 0.001101 -4.636863 67.632656 -2.873066 -0.110737 -13.991938 2.994489 -4.782136 1.647608 -0.003597 0.491138 0.000000 0.000000 -0.000000 
0.099369 94.719154 2.853835 7.046510 6.350272 1.263380 2.196195 -2.727377 -0.910654 3.099219 -3.162404 2.168580 0.000000 0.000000 0.000000 3.091625 -3.180354 2.120447 -5.647365 2.000596 -1.393998 -18.366983 3.484119 8.410584 -0.000001 0.000000 -0.000000 -0.472605 4.837151 -0.286772 0.000000 0.000000 0.000000 -18.246980 6.118548 -64.201128 -0.000032 -111.959266 -0.000064 -70.528328 -11.069072 -17.672988 3.052315 20.083145 13.631505 2.282468 5.105836 -0.313563 -7.290165 -0.361704 13.201589 0.000000 -0.000001 -0.000001 5.739243 6.804742 -86.402378 5.292543 5.824420 -84.512970 5.394039 5.833260 -85.512329 -0.000003 -0.000001 0.000000 0.063380 7.084357 -77.817807 3.517037 5.366877 -66.453759 4.265183 5.632767 -74.247694 0.000000 0.000003 0.000003 0.429285 7.766185 -85.148540 3.012659 5.118556 -60.938046 7.349878 5.656490 -104.867248 0.000004 0.000000 0.000003 -3.111974 8.578956 -82.473441 6.327461 5.831727 -94.678211 6.398823 5.825456 -95.380921 0.000004 0.000000 0.000001 0.323427 -7.582995 12.788907 0.000000 0.000000 0.000000 -22.735697 4.589341 55.000522 0.000059 114.546828 -0.000057 -66.009250 9.599528 29.265902 2.396693 -19.071077 -12.360061 2.764290 -6.757705 -0.628904 -5.366924 -5.803890 -14.864085 0.000002 -0.000000 -0.000000 5.394696 -1.676028 84.200236 4.152330 -4.629787 83.770160 4.238146 -4.638336 84.832377 0.000003 -0.000000 -0.000001 2.177233 -6.430861 75.372606 2.732566 -4.241685 65.566497 3.316527 -4.460429 73.252276 0.000002 0.000000 0.000000 -0.872488 -6.186912 81.800190 2.288844 -4.011177 59.406178 5.709564 -4.536970 103.074064 0.000001 0.000001 0.000001 -12.578774 -6.518132 78.150389 4.833888 -4.653797 92.177433 4.885503 -4.651594 92.813596 -0.000002 0.000000 0.000001 17.979471 14.308389 2.809391 27.497394 -4.471582 9.754650 -27.100425 -1.170545 -0.962751 -32.297294 -0.000002 -0.000008 -0.000001 -0.000001 -0.000001 -57.284687 -0.171245 -5.838260 62.994848 -3.673428 -0.306010 -13.027876 2.955865 -5.115687 1.490677 -0.005669 0.615438 0.000000 -0.000000 0.000001 
0.362466 98.552803 3.011047 6.502227 7.971918 1.742276 3.099303 -2.567984 -0.290324 2.446619 -3.124232 1.713961 0.000000 0.000000 0.000000 2.423727 -3.115747 1.695901 -5.047372 1.811919 -1.815772 -16.188800 1.802792 7.789922 -0.000000 -0.000000 -0.000000 -0.203421 3.122968 -0.566954 0.000000 0.000000 0.000000 -21.904191 3.029754 -63.035058 -0.000057 -109.690318 -0.000051 -71.153434 -10.857877 -17.502951 3.052079 19.424585 13.311495 2.318670 5.149496 -0.282196 -7.244058 -0.301048 13.256369 -0.000000 0.000000 0.000001 5.508311 6.540132 -84.404985 5.160500 5.810296 -83.210029 5.260990 5.821323 -84.201998 -0.000003 0.000000 0.000001 -0.028290 6.934534 -76.285795 3.430223 5.328373 -65.522278 4.186294 5.610020 -73.442449 0.000002 -0.000001 -0.000001 0.374619 7.647759 -83.847040 2.941960 5.078769 -60.142575 7.203625 5.693106 -103.388375 -0.000000 0.000000 -0.000001 -3.122380 8.407768 -81.338906 6.209385 5.840130 -93.517113 6.280229 5.835374 -94.213765 -0.000002 0.000002 -0.000000 0.250419 -6.988276 11.672799 0.000000 0.000000 0.000000 -25.083293 6.274635 55.058773 -0.000003 114.221957 0.000003 -67.297068 9.613010 28.187374 2.225122 -18.937412 -12.390628 2.775302 -6.749197 -0.645861 -5.228504 -6.100037 -15.010317 -0.000001 -0.000000 -0.000000 4.860536 -0.985244 81.914814 4.024132 -4.614025 82.179149 4.115775 -4.625664 83.317065 0.000005 0.000002 0.000000 1.826100 -6.267507 72.978693 2.650904 -4.203741 64.457752 3.234637 -4.435048 72.196308 -0.000001 0.000001 0.000001 -0.841729 -5.998536 79.557347 2.208673 -3.962796 58.253092 5.556929 -4.569616 101.151482 -0.000001 -0.000000 -0.000001 -12.144818 -6.101592 75.947899 4.684013 -4.657097 90.330618 4.732432 -4.656563 90.927037 -0.000002 0.000002 -0.000002 13.775396 12.441688 2.476564 29.658242 -1.592344 10.697462 -11.871813 -0.234992 -2.359178 -46.013427 -0.000002 -0.000002 -0.000000 -0.000000 -0.000001 -52.545690 -0.536521 -6.677746 57.378418 -4.665475 -0.644721 -11.476807 3.022042 -5.832016 0.943580 -0.005803 0.620717 0.000000 0.000000 0.000000 
